<svg t="1743275099251" class="icon" viewBox="0 0 1024 1024" version="1.1" xmlns="http://www.w3.org/2000/svg" p-id="2636" width="200" height="200"><path d="M759.04 334.976a247.936 247.936 0 1 0-393.024 201.216l-0.896 0.384a372.608 372.608 0 0 0-119.296 80.64c-34.56 34.496-61.504 74.688-80.448 119.488a373.632 373.632 0 0 0-29.376 138.112 8 8 0 0 0 8 8.192h59.904a8.064 8.064 0 0 0 8-7.808 298.368 298.368 0 0 1 87.616-204.288 296.384 296.384 0 0 1 211.456-87.936 247.936 247.936 0 0 0 248-248zM510.912 507.008a171.968 171.968 0 1 1 0-344 171.968 171.968 0 0 1 0 344z m105.024 220.992h264a8 8 0 0 0 8-8v-56a8 8 0 0 0-8-8h-176.512l47.232-60.16a8 8 0 0 0-6.272-12.928l-72.64 0.064a16.32 16.32 0 0 0-12.608 6.144l-68.48 87.04a32.064 32.064 0 0 0 25.28 51.84z m240 64H592a8 8 0 0 0-8 8v56c0 4.416 3.584 8 8 8h176.512l-47.232 60.16a8 8 0 0 0 6.272 12.928l72.64-0.064a16.32 16.32 0 0 0 12.608-6.144l68.48-87.04a32.064 32.064 0 0 0-25.28-51.84z" p-id="2637"></path></svg>