<svg t="1743275341493" class="icon" viewBox="0 0 1024 1024" version="1.1" xmlns="http://www.w3.org/2000/svg" p-id="24590" width="200" height="200"><path d="M512 0c279.637333 0 506.88 224.170667 511.914667 502.727111l0.085333 9.386667-0.085333 9.500444C1018.794667 800.312889 791.210667 1024 512 1024 232.362667 1024 5.12 799.829333 0.085333 521.272889L0 511.886222l0.085333-9.500444C5.205333 223.687111 232.789333 0 512 0z m0 28.728889c-260.352 0-473.173333 206.222222-482.759111 464.896l-0.284445 9.159111-0.056888 9.216c0 266.894222 216.291556 483.271111 483.100444 483.271111 260.352 0 473.173333-206.222222 482.759111-464.896l0.284445-9.159111 0.056888-9.216C995.100444 245.105778 778.808889 28.728889 512 28.728889z m-16.896 161.194667A84.280889 84.280889 0 0 1 598.471111 248.888889a83.797333 83.797333 0 0 1-59.249778 102.883555v47.502223c21.276444 0.853333 42.467556 3.214222 63.431111 7.111111l0.625778 0.113778 0.682667 0.113777c12.515556 2.56 23.324444 10.325333 29.781333 21.333334l1.166222 2.360889 1.223112 2.332444a126.976 126.976 0 0 0 59.335111 55.552l4.835555 2.076444 4.949334 1.877334a488.106667 488.106667 0 0 1 180.622222 130.503111l3.413333 3.982222 3.328 3.982222 2.190222 3.185778a67.242667 67.242667 0 0 1-20.679111 93.127111 67.953778 67.953778 0 0 1-93.582222-20.565333H254.862222a67.982222 67.982222 0 0 1-97.052444 18.147555 67.214222 67.214222 0 0 1-14.734222-94.236444l3.100444-3.669333 3.128889-3.640889a488.049778 488.049778 0 0 1 175.843555-128.597334l4.636445-1.848888 4.522667-1.991112a126.976 126.976 0 0 0 58.168888-54.954666l1.251556-2.417778 1.223111-2.446222c5.774222-9.841778 15.104-17.123556 26.083556-20.366222l2.844444-0.654223 2.844445-0.625777c22.556444-4.892444 45.454222-7.964444 68.494222-9.301334v-67.697778l0.085333-0.796444a21.902222 21.902222 0 0 1 21.105778-20.138667h1.649778a40.248889 40.248889 0 0 0 37.432889-53.475555 40.533333 40.533333 0 0 0-51.541334-24.888889 40.248889 40.248889 0 0 0-24.974222 51.256889l0.682667 1.792a21.333333 21.333333 0 0 1 1.109333 6.826666l-0.256 3.214223a21.959111 21.959111 0 0 1-41.898667 5.233777l-0.056889-0.056888v-0.056889l-0.426666-1.137778a83.797333 83.797333 0 0 1 57.002666-109.909333z m22.613333 348.615111a288.312889 288.312889 0 0 0-237.568 124.529777h475.136a288.312889 288.312889 0 0 0-237.568-124.529777z" fill="#666666" p-id="24591"></path></svg>